<svg width="636" height="636" viewBox="0 0 636 636" fill="none" xmlns="http://www.w3.org/2000/svg">
<path d="M128.981 489.389C235.562 545.065 408.35 545.065 514.931 489.389C621.512 433.714 621.499 343.44 514.931 287.765C408.363 232.089 235.562 232.089 128.981 287.765C22.3998 343.44 22.4125 433.752 128.981 489.389Z" fill="#F5F5F5"/>
<path d="M446.128 394.231C465.463 403.453 496.817 403.453 516.088 394.231C535.359 385.009 535.423 370.063 516.088 360.854C496.754 351.644 465.399 351.644 446.128 360.854C426.858 370.063 426.794 385.022 446.128 394.231Z" fill="#E0E0E0"/>
<path d="M216.303 182.239C216.154 182.239 216.01 182.181 215.903 182.076C215.796 181.972 215.734 181.829 215.731 181.68V158.784C215.731 149.231 220.984 138.432 227.433 134.718C230.13 133.166 232.814 132.988 234.989 134.247C237.978 135.964 239.683 140.111 239.683 145.606V168.362C239.684 168.436 239.671 168.509 239.644 168.578C239.616 168.647 239.575 168.709 239.523 168.762C239.47 168.814 239.408 168.855 239.339 168.883C239.271 168.91 239.197 168.923 239.123 168.922C239.048 168.923 238.974 168.91 238.905 168.883C238.836 168.855 238.772 168.814 238.719 168.762C238.666 168.71 238.623 168.648 238.594 168.579C238.565 168.51 238.551 168.437 238.551 168.362V145.644C238.551 140.556 237.05 136.74 234.417 135.264C232.585 134.209 230.372 134.374 228.057 135.735C221.926 139.284 216.927 149.638 216.927 158.822V181.718C216.922 181.794 216.902 181.868 216.868 181.936C216.833 182.004 216.786 182.064 216.727 182.113C216.669 182.162 216.601 182.198 216.528 182.22C216.455 182.242 216.379 182.248 216.303 182.239Z" fill="#455A64"/>
<path d="M282.384 262.706L279.878 155.057L261.561 144.499L259.386 249.439L282.384 262.706Z" fill="#FFC100"/>
<g opacity="0.2">
<path opacity="0.2" d="M282.384 262.706L279.878 155.057L261.561 144.499L259.386 249.439L282.384 262.706Z" fill="black"/>
</g>
<path d="M197.173 181.68L195.01 286.607L259.386 249.439L261.561 144.499L197.173 181.68Z" fill="#FFC100"/>
<g opacity="0.4">
<path opacity="0.4" d="M197.173 181.68L195.01 286.607L259.386 249.439L261.561 144.499L197.173 181.68Z" fill="black"/>
</g>
<path d="M215.502 192.225L217.995 299.874L282.384 262.706L279.878 155.057L215.502 192.225Z" fill="#FFC100"/>
<path d="M197.173 181.68L215.502 192.225L217.995 299.874L195.01 286.607L197.173 181.68Z" fill="#FFC100"/>
<g opacity="0.2">
<path opacity="0.2" d="M197.173 181.68L215.502 192.225L217.995 299.874L195.01 286.607L197.173 181.68Z" fill="black"/>
</g>
<path opacity="0.2" d="M217.995 299.874L208.697 283.885L207.031 218.784L205.377 282.931L195.01 286.607L217.995 299.874Z" fill="black"/>
<g opacity="0.2">
<path opacity="0.2" d="M234.671 189.528C234.002 189.964 233.445 190.552 233.045 191.244C232.645 191.935 232.413 192.712 232.369 193.509C232.369 194.972 233.399 195.583 234.671 194.858C235.351 194.414 235.915 193.814 236.315 193.108C236.716 192.402 236.941 191.611 236.974 190.8C236.974 189.337 235.943 188.727 234.671 189.528Z" fill="black"/>
</g>
<g opacity="0.2">
<path opacity="0.2" d="M257.491 176.185C256.821 176.621 256.264 177.209 255.864 177.9C255.464 178.592 255.233 179.368 255.188 180.166C255.188 181.642 256.219 182.239 257.491 181.514C258.158 181.077 258.713 180.488 259.11 179.797C259.508 179.105 259.738 178.33 259.78 177.533C259.78 176.058 258.763 175.46 257.491 176.185Z" fill="black"/>
</g>
<path d="M234.671 192.695C234.587 192.703 234.503 192.692 234.424 192.664C234.345 192.635 234.273 192.59 234.213 192.53C234.154 192.471 234.108 192.399 234.079 192.32C234.051 192.24 234.04 192.156 234.048 192.072V169.176C234.048 159.636 239.301 148.824 245.738 145.123C248.447 143.558 251.131 143.393 253.293 144.639C256.282 146.369 258 150.516 258 156.011V178.843C258.012 178.925 258.006 179.008 257.984 179.087C257.961 179.166 257.921 179.239 257.867 179.302C257.814 179.364 257.747 179.414 257.672 179.449C257.597 179.483 257.516 179.501 257.434 179.501C257.351 179.501 257.27 179.483 257.195 179.449C257.12 179.414 257.054 179.364 257 179.302C256.946 179.239 256.906 179.166 256.884 179.087C256.861 179.008 256.855 178.925 256.868 178.843V156.1C256.868 151.012 255.367 147.196 252.734 145.708C250.902 144.652 248.676 144.817 246.374 146.191C240.243 149.727 235.244 160.081 235.244 169.265V192.161C235.234 192.306 235.169 192.442 235.063 192.541C234.957 192.641 234.817 192.696 234.671 192.695Z" fill="#455A64"/>
<path d="M134.832 237.482C134.769 237.484 134.707 237.473 134.648 237.45C134.589 237.427 134.536 237.393 134.491 237.349C134.446 237.305 134.41 237.253 134.386 237.195C134.361 237.137 134.349 237.075 134.349 237.012V217.932C134.349 209.931 138.75 200.9 144.143 197.783C145.067 197.145 146.147 196.771 147.268 196.701C148.389 196.632 149.507 196.87 150.503 197.389C153.047 198.826 154.446 202.299 154.446 206.904V225.984C154.428 226.097 154.37 226.2 154.282 226.274C154.195 226.348 154.084 226.389 153.969 226.389C153.855 226.389 153.744 226.348 153.656 226.274C153.569 226.2 153.511 226.097 153.492 225.984V206.904C153.492 202.642 152.22 199.475 150.032 198.203C149.183 197.777 148.233 197.589 147.286 197.661C146.338 197.733 145.427 198.061 144.652 198.61C139.564 201.574 135.341 210.236 135.341 217.932V237.012C135.341 237.077 135.328 237.141 135.302 237.201C135.276 237.261 135.238 237.315 135.19 237.359C135.142 237.403 135.085 237.437 135.024 237.458C134.962 237.479 134.897 237.488 134.832 237.482Z" fill="#455A64"/>
<path d="M190.177 304.848L188.078 214.726L172.737 205.899L170.918 293.743L190.177 304.848Z" fill="#FFC100"/>
<g opacity="0.2">
<path opacity="0.2" d="M190.177 304.848L188.078 214.726L172.737 205.899L170.918 293.743L190.177 304.848Z" fill="black"/>
</g>
<path d="M118.843 237.012L117.024 324.856L170.919 293.743L172.738 205.899L118.843 237.012Z" fill="#FFC100"/>
<g opacity="0.4">
<path opacity="0.4" d="M118.843 237.012L117.024 324.856L170.919 293.743L172.738 205.899L118.843 237.012Z" fill="black"/>
</g>
<path d="M134.183 245.839L136.269 335.973L190.177 304.848L188.078 214.726L134.183 245.839Z" fill="#FFC100"/>
<path d="M118.843 237.012L134.183 245.839L136.269 335.973L117.024 324.856L118.843 237.012Z" fill="#FFC100"/>
<g opacity="0.2">
<path opacity="0.2" d="M118.843 237.012L134.183 245.839L136.269 335.973L117.024 324.856L118.843 237.012Z" fill="black"/>
</g>
<path opacity="0.2" d="M136.269 335.973L128.485 322.579L127.098 268.087L125.699 321.778L117.024 324.856L136.269 335.973Z" fill="black"/>
<g opacity="0.2">
<path opacity="0.2" d="M150.223 243.524C149.664 243.894 149.2 244.389 148.866 244.97C148.533 245.55 148.34 246.201 148.302 246.87C148.302 248.142 149.167 248.6 150.223 247.989C150.788 247.628 151.258 247.138 151.595 246.558C151.931 245.978 152.124 245.326 152.156 244.657C152.156 243.423 151.291 242.952 150.223 243.524Z" fill="#455A64"/>
</g>
<g opacity="0.2">
<path opacity="0.2" d="M169.328 232.42C168.769 232.785 168.303 233.277 167.969 233.856C167.636 234.435 167.443 235.085 167.408 235.752C167.408 237.025 168.273 237.482 169.328 236.885C169.89 236.521 170.356 236.029 170.69 235.45C171.024 234.87 171.216 234.22 171.249 233.552C171.249 232.305 170.448 231.809 169.328 232.42Z" fill="#455A64"/>
</g>
<path d="M150.223 246.234C150.099 246.231 149.981 246.18 149.894 246.092C149.806 246.005 149.756 245.887 149.752 245.763V226.62C149.752 218.631 154.141 209.6 159.547 206.484C160.47 205.845 161.55 205.469 162.67 205.398C163.791 205.326 164.91 205.561 165.907 206.077C168.451 207.527 169.837 210.999 169.837 215.591V234.671C169.839 234.734 169.828 234.796 169.805 234.853C169.782 234.911 169.747 234.964 169.703 235.008C169.659 235.052 169.607 235.087 169.549 235.11C169.491 235.133 169.429 235.144 169.367 235.142C169.242 235.142 169.122 235.092 169.034 235.004C168.946 234.916 168.896 234.796 168.896 234.671V215.591C168.896 211.343 167.624 208.176 165.423 206.904C164.578 206.471 163.629 206.28 162.682 206.352C161.735 206.424 160.826 206.756 160.056 207.311C154.968 210.274 150.745 218.937 150.745 226.62V245.763C150.743 245.829 150.728 245.894 150.701 245.953C150.673 246.013 150.634 246.067 150.585 246.111C150.536 246.155 150.479 246.188 150.417 246.21C150.355 246.231 150.289 246.239 150.223 246.234Z" fill="#455A64"/>
<path d="M124.504 381.689L130.94 378.395C130.94 378.395 129.859 366.222 127.671 354.061C124.656 337.334 111.224 320.913 96.4053 321.409C81.5865 321.905 85.0718 332.997 91.8006 338.67C96.0618 342.27 119.988 359.976 124.504 381.689Z" fill="#FFC100"/>
<g opacity="0.1">
<path opacity="0.1" d="M124.504 381.689L130.94 378.395C130.94 378.395 129.859 366.222 127.671 354.061C124.656 337.334 111.224 320.913 96.4053 321.409C81.5865 321.905 85.0718 332.997 91.8006 338.67C96.0618 342.27 119.988 359.976 124.504 381.689Z" fill="black"/>
</g>
<path d="M127.671 380.328H127.594C127.383 380.305 127.188 380.201 127.053 380.037C126.917 379.873 126.851 379.662 126.869 379.45C128.586 362.52 112.101 332.59 92.856 325.378C92.657 325.303 92.4957 325.153 92.4074 324.96C92.3192 324.767 92.3112 324.546 92.3853 324.347C92.4596 324.148 92.6099 323.987 92.8031 323.899C92.9963 323.81 93.2166 323.803 93.4156 323.877C113.208 331.318 130.227 362.113 128.472 379.667C128.441 379.855 128.343 380.026 128.196 380.148C128.048 380.27 127.862 380.334 127.671 380.328Z" fill="white"/>
<path d="M128.994 395.986L130.94 383.05C129.502 374.645 125.282 366.967 118.958 361.248C108.273 351.454 93.2506 347.091 83.2145 350.067C73.1784 353.044 74.6285 362.902 83.4816 366.234C92.3347 369.567 104.292 369.414 115.282 377.072C122.774 382.401 129.363 391.483 128.994 395.986Z" fill="#FFC100"/>
<path d="M129.744 387.96C129.558 387.957 129.379 387.889 129.237 387.769C129.096 387.648 129.001 387.482 128.968 387.299C126.131 371.348 101.34 354.608 83.176 356.376C83.0721 356.389 82.9667 356.38 82.8663 356.35C82.7658 356.321 82.6724 356.271 82.5915 356.205C82.5107 356.138 82.4442 356.056 82.396 355.963C82.3478 355.87 82.3189 355.768 82.3111 355.664C82.2988 355.559 82.3075 355.453 82.3369 355.352C82.3662 355.251 82.4156 355.157 82.482 355.075C82.5484 354.993 82.6305 354.925 82.7235 354.876C82.8165 354.826 82.9184 354.796 83.0234 354.786C102.205 352.878 127.543 370.05 130.507 387.019C130.527 387.122 130.527 387.227 130.506 387.33C130.485 387.433 130.443 387.53 130.384 387.616C130.325 387.703 130.249 387.777 130.161 387.833C130.073 387.89 129.974 387.929 129.871 387.947L129.744 387.96Z" fill="white"/>
<path d="M399.51 297.177L370.025 280.158L332.793 258.661H332.704C329.359 256.804 327.273 252.721 327.273 246.882C327.273 241.286 325.365 237.304 322.274 235.345L347.714 250.024L351.733 252.339L388.914 273.798L389.321 274.04C392.514 275.948 394.485 279.98 394.485 285.666C394.485 291.352 396.368 295.231 399.51 297.177Z" fill="#FFC100"/>
<g opacity="0.1">
<path opacity="0.1" d="M399.51 297.177L370.025 280.158L332.793 258.661H332.704C329.359 256.804 327.273 252.721 327.273 246.882C327.273 241.286 325.365 237.304 322.274 235.345L347.714 250.024L351.733 252.339L388.914 273.798L389.321 274.04C392.514 275.948 394.485 279.98 394.485 285.666C394.485 291.352 396.368 295.231 399.51 297.177Z" fill="black"/>
</g>
<path d="M430.61 255.761V264.729C430.61 276.266 422.52 290.283 412.535 296.045C407.613 298.895 403.135 299.2 399.879 297.394L399.51 297.177C396.368 295.231 394.422 291.237 394.422 285.615C394.422 279.993 392.45 275.897 389.258 273.989L388.851 273.747L351.67 252.288C358.539 245.356 363.423 234.9 363.423 225.945V217.041L430.61 255.761Z" fill="#FFC100"/>
<path d="M388.876 273.747C385.619 272.03 381.244 272.361 376.359 275.172C374.026 276.543 371.887 278.22 369.999 280.158C363.13 287.078 358.259 297.534 358.259 306.488C358.259 318.025 350.156 332.043 340.171 337.818L322.083 348.261L254.934 309.478L273.022 299.034C283.007 293.272 291.11 279.242 291.11 267.705C291.11 256.168 299.2 242.151 309.198 236.388C314.108 233.552 318.572 233.247 321.829 235.04L322.261 235.282L347.701 249.961L351.721 252.276L388.876 273.747Z" fill="#FFC100"/>
<g opacity="0.4">
<path opacity="0.4" d="M388.876 273.747C385.619 272.03 381.244 272.361 376.359 275.172C374.026 276.543 371.887 278.22 369.999 280.158C363.13 287.078 358.259 297.534 358.259 306.488C358.259 318.025 350.156 332.043 340.171 337.818L322.083 348.261L254.934 309.478L273.022 299.034C283.007 293.272 291.11 279.242 291.11 267.705C291.11 256.168 299.2 242.151 309.198 236.388C314.108 233.552 318.572 233.247 321.829 235.04L322.261 235.282L347.701 249.961L351.721 252.276L388.876 273.747Z" fill="white"/>
</g>
<path d="M337.551 314.884C337.131 312.085 334.854 311.068 332.107 312.658L322.109 318.42L301.757 330.16C298.038 332.198 294.457 334.476 291.034 336.978C285.777 341.492 280.898 346.426 276.444 351.733C267.54 361.909 258.636 372.95 249.732 378.089L203.571 404.738C201.968 405.784 200.634 407.192 199.678 408.85C198.721 410.507 198.168 412.367 198.063 414.278V431.386C198.063 434.642 200.187 436.105 202.922 434.897C201.274 435.6 199.493 435.935 197.702 435.878C195.912 435.82 194.155 435.373 192.555 434.566L131.27 399.166C129.668 398.12 128.334 396.712 127.377 395.054C126.42 393.397 125.867 391.537 125.763 389.626V372.518C125.865 370.606 126.417 368.746 127.374 367.089C128.331 365.431 129.666 364.022 131.27 362.978L177.431 336.266C186.335 331.178 195.239 320.086 204.143 309.923C208.616 304.627 213.512 299.705 218.784 295.206C222.204 292.709 225.781 290.436 229.494 288.401L249.846 276.66L259.832 270.885C261.538 270.019 263.425 269.568 265.339 269.568C267.253 269.568 269.14 270.019 270.847 270.885L332.17 306.298C333.624 307.266 334.856 308.532 335.784 310.012C336.711 311.492 337.314 313.153 337.551 314.884Z" fill="#455A64"/>
<path d="M203.266 416.86C203.266 416.86 125.763 372.505 125.775 372.124C125.775 372.124 125.775 372.378 125.775 372.505V389.614C125.878 391.525 126.43 393.385 127.387 395.043C128.344 396.701 129.679 398.109 131.283 399.154L192.606 434.566C194.313 435.432 196.2 435.883 198.114 435.883C200.028 435.883 201.915 435.432 203.622 434.566L206.242 433.052L203.266 416.86Z" fill="#37474F"/>
<path d="M332.094 312.645L301.782 330.16C298.067 332.199 294.485 334.472 291.059 336.966C277.296 348.083 263.533 370.152 249.77 378.077L203.609 404.789C202.005 405.833 200.67 407.241 199.713 408.899C198.756 410.557 198.204 412.417 198.102 414.329V431.437C198.102 434.948 200.569 436.372 203.609 434.617L332.081 360.434C333.684 359.388 335.018 357.979 335.975 356.322C336.932 354.664 337.485 352.805 337.589 350.894V315.825C337.615 312.314 335.147 310.89 332.094 312.645Z" fill="#263238"/>
<path d="M291.453 324.195C287.735 326.233 284.153 328.51 280.73 331.013C278.08 333.198 275.57 335.548 273.213 338.047C272.697 338.545 272.037 338.868 271.327 338.971C270.617 339.073 269.893 338.95 269.257 338.619L221.977 311.322C221.698 311.186 221.456 310.984 221.273 310.733C221.09 310.483 220.971 310.192 220.926 309.885C220.88 309.578 220.911 309.264 221.014 308.972C221.118 308.679 221.291 308.416 221.519 308.206C223.885 305.707 226.404 303.357 229.062 301.171C232.482 298.675 236.059 296.402 239.772 294.366C245.559 291.008 252.047 287.256 257.898 283.898C258.583 283.553 259.338 283.374 260.105 283.374C260.871 283.374 261.627 283.553 262.312 283.898L309.579 311.182C309.843 311.275 310.071 311.447 310.232 311.675C310.394 311.902 310.48 312.175 310.48 312.454C310.48 312.733 310.394 313.006 310.232 313.233C310.071 313.461 309.843 313.633 309.579 313.726L291.453 324.195Z" fill="#37474F"/>
<path d="M262.312 286.2C261.628 285.855 260.872 285.675 260.105 285.675C259.338 285.675 258.583 285.855 257.898 286.2L239.772 296.681C236.059 298.717 232.482 300.99 229.062 303.486C226.407 305.671 223.888 308.016 221.519 310.508L221.29 310.8C221.479 311.041 221.712 311.244 221.977 311.398L269.257 338.695C269.893 339.027 270.618 339.15 271.327 339.047C272.037 338.944 272.697 338.621 273.213 338.123C275.57 335.624 278.081 333.275 280.731 331.089C284.154 328.587 287.735 326.309 291.454 324.271L309.58 313.802L309.796 313.65L309.58 313.497L262.312 286.2Z" fill="white"/>
<path d="M192.937 422.826C192.937 424.479 191.665 425.102 190.176 424.225L133.687 391.611C132.901 391.117 132.243 390.445 131.766 389.65C131.288 388.854 131.005 387.957 130.939 387.031C130.939 385.378 132.211 384.755 133.687 385.632L190.176 418.259C190.963 418.75 191.623 419.419 192.102 420.213C192.582 421.006 192.868 421.901 192.937 422.826Z" fill="#263238"/>
<path d="M213.289 363.919V361.655L210.668 361.464L204.792 358.043C203.938 357.61 202.995 357.385 202.038 357.385C201.081 357.385 200.138 357.61 199.284 358.043L195.315 360.332L193.318 360.18V362.38C193.338 362.73 193.455 363.067 193.654 363.354C193.854 363.641 194.13 363.868 194.45 364.008L201.853 368.282C202.707 368.715 203.65 368.94 204.607 368.94C205.564 368.94 206.508 368.715 207.361 368.282L212.195 365.496C212.503 365.357 212.77 365.139 212.969 364.865C213.167 364.59 213.291 364.269 213.327 363.932L213.289 363.919Z" fill="#E0E0E0"/>
<path d="M204.792 355.804L212.208 360.078C212.54 360.19 212.828 360.405 213.033 360.69C213.237 360.975 213.347 361.317 213.347 361.668C213.347 362.019 213.237 362.361 213.033 362.646C212.828 362.931 212.54 363.145 212.208 363.258L207.374 366.043C206.52 366.476 205.577 366.701 204.62 366.701C203.663 366.701 202.72 366.476 201.866 366.043L194.463 361.77C194.131 361.657 193.842 361.443 193.638 361.158C193.434 360.872 193.324 360.53 193.324 360.18C193.324 359.829 193.434 359.487 193.638 359.201C193.842 358.916 194.131 358.702 194.463 358.59L199.284 355.804C200.138 355.371 201.081 355.146 202.038 355.146C202.995 355.146 203.938 355.371 204.792 355.804Z" fill="#F5F5F5"/>
<path d="M193.916 352.7V350.436L191.296 350.245L185.368 346.824C184.515 346.391 183.571 346.166 182.615 346.166C181.658 346.166 180.714 346.391 179.861 346.824L175.892 349.113L173.895 348.973V351.161C173.92 351.509 174.04 351.844 174.241 352.129C174.443 352.414 174.719 352.638 175.04 352.776L182.443 357.05C183.295 357.489 184.239 357.718 185.197 357.718C186.155 357.718 187.099 357.489 187.951 357.05L192.771 354.265C193.084 354.129 193.355 353.912 193.556 353.637C193.757 353.363 193.881 353.039 193.916 352.7Z" fill="#E0E0E0"/>
<path d="M185.369 344.585L192.772 348.871C193.104 348.984 193.392 349.198 193.597 349.483C193.801 349.769 193.911 350.111 193.911 350.461C193.911 350.812 193.801 351.154 193.597 351.44C193.392 351.725 193.104 351.939 192.772 352.051L187.951 354.888C187.097 355.321 186.154 355.546 185.197 355.546C184.24 355.546 183.297 355.321 182.443 354.888L175.04 350.601C174.708 350.489 174.419 350.275 174.215 349.989C174.01 349.704 173.9 349.362 173.9 349.011C173.9 348.661 174.01 348.318 174.215 348.033C174.419 347.748 174.708 347.534 175.04 347.421L179.861 344.636C180.71 344.195 181.652 343.961 182.609 343.952C183.565 343.944 184.511 344.16 185.369 344.585Z" fill="#F5F5F5"/>
<path d="M232.662 375.1V372.836L230.118 372.645L224.178 369.223C223.324 368.791 222.381 368.566 221.424 368.566C220.467 368.566 219.523 368.791 218.67 369.223L214.714 371.513L212.704 371.36V373.561C212.725 373.91 212.842 374.247 213.042 374.534C213.242 374.821 213.516 375.048 213.836 375.189L221.252 379.463C222.106 379.896 223.049 380.121 224.006 380.121C224.963 380.121 225.906 379.896 226.76 379.463L231.581 376.677C231.891 376.54 232.159 376.323 232.358 376.048C232.556 375.773 232.679 375.45 232.713 375.113L232.662 375.1Z" fill="#E0E0E0"/>
<path d="M224.126 366.985L231.529 371.259C231.862 371.371 232.15 371.585 232.355 371.871C232.559 372.156 232.669 372.498 232.669 372.849C232.669 373.199 232.559 373.542 232.355 373.827C232.15 374.112 231.862 374.326 231.529 374.439L226.709 377.224C225.855 377.657 224.912 377.882 223.955 377.882C222.998 377.882 222.054 377.657 221.201 377.224L213.785 372.95C213.453 372.838 213.164 372.624 212.96 372.338C212.755 372.053 212.646 371.711 212.646 371.36C212.646 371.01 212.755 370.667 212.96 370.382C213.164 370.097 213.453 369.883 213.785 369.77L218.619 366.985C219.472 366.552 220.416 366.327 221.373 366.327C222.329 366.327 223.273 366.552 224.126 366.985Z" fill="#F5F5F5"/>
<path d="M228.795 354.977V352.713L226.174 352.522L220.247 349.1C219.393 348.668 218.45 348.443 217.493 348.443C216.536 348.443 215.593 348.668 214.739 349.1L210.77 351.39L208.773 351.237V353.438C208.795 353.787 208.912 354.123 209.111 354.411C209.311 354.698 209.586 354.925 209.906 355.066L217.321 359.34C218.175 359.773 219.118 359.998 220.075 359.998C221.032 359.998 221.975 359.773 222.829 359.34L227.65 356.554C227.959 356.414 228.227 356.197 228.428 355.922C228.628 355.648 228.755 355.327 228.795 354.99V354.977Z" fill="#E0E0E0"/>
<path d="M220.247 346.862L227.65 351.136C227.982 351.248 228.271 351.462 228.475 351.748C228.68 352.033 228.79 352.375 228.79 352.726C228.79 353.076 228.68 353.419 228.475 353.704C228.271 353.989 227.982 354.203 227.65 354.316L222.829 357.101C221.976 357.534 221.032 357.759 220.075 357.759C219.118 357.759 218.175 357.534 217.321 357.101L209.88 352.827C209.548 352.715 209.259 352.501 209.055 352.215C208.851 351.93 208.741 351.588 208.741 351.237C208.741 350.887 208.851 350.544 209.055 350.259C209.259 349.974 209.548 349.76 209.88 349.647L214.714 346.862C215.571 346.425 216.519 346.197 217.48 346.197C218.442 346.197 219.39 346.425 220.247 346.862Z" fill="#F5F5F5"/>
<path d="M209.422 343.758V341.494L206.802 341.303L200.874 337.881C200.021 337.449 199.077 337.224 198.12 337.224C197.164 337.224 196.22 337.449 195.367 337.881L191.398 340.171L189.401 340.031V342.168C189.421 342.518 189.537 342.855 189.737 343.142C189.937 343.429 190.212 343.656 190.533 343.796L197.949 348.07C198.802 348.503 199.746 348.728 200.703 348.728C201.66 348.728 202.603 348.503 203.456 348.07L208.277 345.284C208.588 345.148 208.857 344.931 209.056 344.656C209.255 344.381 209.377 344.058 209.409 343.72L209.422 343.758Z" fill="#E0E0E0"/>
<path d="M200.874 335.643L208.277 339.929C208.61 340.042 208.898 340.256 209.103 340.541C209.307 340.826 209.417 341.168 209.417 341.519C209.417 341.87 209.307 342.212 209.103 342.497C208.898 342.783 208.61 342.997 208.277 343.109L203.52 345.895C202.667 346.327 201.723 346.553 200.766 346.553C199.809 346.553 198.866 346.327 198.012 345.895L190.597 341.608C190.264 341.496 189.976 341.282 189.771 340.996C189.567 340.711 189.457 340.369 189.457 340.018C189.457 339.667 189.567 339.325 189.771 339.04C189.976 338.755 190.264 338.541 190.597 338.428L195.43 335.643C196.275 335.221 197.207 335.001 198.152 335.001C199.097 335.001 200.029 335.221 200.874 335.643Z" fill="#F5F5F5"/>
<path d="M248.167 366.158V363.894L245.547 363.703L239.619 360.281C238.766 359.849 237.822 359.623 236.866 359.623C235.909 359.623 234.965 359.849 234.112 360.281L230.143 362.571L228.146 362.418V364.619C228.171 364.968 228.291 365.305 228.493 365.592C228.694 365.878 228.97 366.105 229.291 366.247L236.694 370.521C237.547 370.953 238.491 371.179 239.448 371.179C240.405 371.179 241.348 370.953 242.202 370.521L247.035 367.735C247.344 367.595 247.61 367.378 247.809 367.103C248.008 366.829 248.131 366.507 248.167 366.171V366.158Z" fill="#E0E0E0"/>
<path d="M239.62 358.043L247.035 362.316C247.368 362.429 247.656 362.643 247.861 362.928C248.065 363.214 248.175 363.556 248.175 363.906C248.175 364.257 248.065 364.599 247.861 364.885C247.656 365.17 247.368 365.384 247.035 365.496L242.202 368.282C241.348 368.715 240.405 368.94 239.448 368.94C238.491 368.94 237.547 368.715 236.694 368.282L229.291 364.008C228.959 363.896 228.67 363.682 228.466 363.396C228.261 363.111 228.151 362.769 228.151 362.418C228.151 362.067 228.261 361.725 228.466 361.44C228.67 361.155 228.959 360.941 229.291 360.828L234.112 358.043C234.965 357.61 235.909 357.385 236.866 357.385C237.823 357.385 238.766 357.61 239.62 358.043Z" fill="#F5F5F5"/>
<path d="M197.796 372.9V370.635L195.176 370.445L189.248 367.023C188.397 366.584 187.452 366.356 186.494 366.356C185.536 366.356 184.592 366.584 183.741 367.023L179.772 369.312L177.775 369.16V371.424C177.799 371.772 177.917 372.108 178.116 372.394C178.316 372.681 178.589 372.908 178.907 373.052L186.323 377.326C187.176 377.759 188.12 377.984 189.077 377.984C190.034 377.984 190.977 377.759 191.831 377.326L196.651 374.54C196.961 374.4 197.229 374.183 197.429 373.909C197.63 373.634 197.756 373.313 197.796 372.976V372.9Z" fill="#E0E0E0"/>
<path d="M189.248 364.784L196.652 369.058C196.984 369.171 197.272 369.385 197.477 369.67C197.681 369.955 197.791 370.297 197.791 370.648C197.791 370.999 197.681 371.341 197.477 371.626C197.272 371.911 196.984 372.125 196.652 372.238L191.831 375.024C190.977 375.456 190.034 375.682 189.077 375.682C188.12 375.682 187.176 375.456 186.323 375.024L178.907 370.75C178.575 370.637 178.286 370.423 178.082 370.138C177.877 369.853 177.768 369.511 177.768 369.16C177.768 368.809 177.877 368.467 178.082 368.182C178.286 367.897 178.575 367.683 178.907 367.57L183.741 364.784C184.594 364.352 185.538 364.126 186.495 364.126C187.451 364.126 188.395 364.352 189.248 364.784Z" fill="#F5F5F5"/>
<path d="M178.411 361.68V359.416L175.867 359.226L169.927 355.804C169.073 355.371 168.13 355.146 167.173 355.146C166.216 355.146 165.272 355.371 164.419 355.804L160.463 358.093L158.453 357.941V360.141C158.474 360.49 158.591 360.827 158.791 361.114C158.991 361.401 159.265 361.628 159.585 361.77L167.001 366.043C167.855 366.476 168.798 366.701 169.755 366.701C170.712 366.701 171.655 366.476 172.509 366.043L177.33 363.258C177.64 363.12 177.908 362.903 178.107 362.628C178.305 362.353 178.428 362.031 178.462 361.693L178.411 361.68Z" fill="#E0E0E0"/>
<path d="M169.863 353.616L177.279 357.89C177.611 358.003 177.9 358.217 178.104 358.502C178.309 358.787 178.418 359.129 178.418 359.48C178.418 359.831 178.309 360.173 178.104 360.458C177.9 360.743 177.611 360.957 177.279 361.07L172.458 363.792C171.605 364.225 170.661 364.45 169.704 364.45C168.747 364.45 167.804 364.225 166.95 363.792L159.535 359.518C159.202 359.405 158.914 359.191 158.709 358.906C158.505 358.621 158.395 358.279 158.395 357.928C158.395 357.577 158.505 357.235 158.709 356.95C158.914 356.665 159.202 356.451 159.535 356.338L164.355 353.552C165.214 353.13 166.16 352.915 167.117 352.926C168.074 352.937 169.015 353.174 169.863 353.616Z" fill="#F5F5F5"/>
<path d="M217.169 384.144V381.88L214.548 381.689L208.608 378.204C207.756 377.765 206.812 377.536 205.854 377.536C204.896 377.536 203.952 377.765 203.1 378.204L199.132 380.493L197.16 380.328V382.529C197.187 382.878 197.307 383.213 197.509 383.5C197.71 383.787 197.985 384.014 198.305 384.157L205.708 388.431C206.562 388.863 207.505 389.089 208.462 389.089C209.419 389.089 210.362 388.863 211.216 388.431L216.037 385.645C216.346 385.505 216.614 385.287 216.815 385.013C217.015 384.739 217.142 384.418 217.181 384.08L217.169 384.144Z" fill="#E0E0E0"/>
<path d="M208.608 375.965L216.011 380.239C216.343 380.352 216.632 380.566 216.836 380.851C217.041 381.136 217.15 381.478 217.15 381.829C217.15 382.18 217.041 382.522 216.836 382.807C216.632 383.092 216.343 383.306 216.011 383.419L211.152 386.205C210.298 386.637 209.355 386.863 208.398 386.863C207.441 386.863 206.498 386.637 205.644 386.205L198.241 381.931C197.909 381.818 197.62 381.604 197.416 381.319C197.211 381.034 197.102 380.692 197.102 380.341C197.102 379.99 197.211 379.648 197.416 379.363C197.62 379.077 197.909 378.864 198.241 378.751L203.062 375.965C203.92 375.526 204.871 375.297 205.835 375.297C206.799 375.297 207.749 375.526 208.608 375.965Z" fill="#F5F5F5"/>
<path d="M182.278 381.829V379.565L179.657 379.374L173.73 375.94C172.876 375.507 171.933 375.282 170.976 375.282C170.019 375.282 169.076 375.507 168.222 375.94L164.253 378.229L162.256 378.089V380.328C162.281 380.676 162.401 381.011 162.603 381.296C162.805 381.581 163.081 381.805 163.401 381.943L170.804 386.23C171.658 386.663 172.601 386.888 173.558 386.888C174.515 386.888 175.458 386.663 176.312 386.23L181.146 383.444C181.456 383.304 181.724 383.084 181.922 382.807C182.121 382.53 182.244 382.206 182.278 381.867V381.829Z" fill="#E0E0E0"/>
<path d="M173.73 373.701L181.146 377.988C181.478 378.1 181.766 378.314 181.971 378.599C182.175 378.885 182.285 379.227 182.285 379.578C182.285 379.928 182.175 380.27 181.971 380.556C181.766 380.841 181.478 381.055 181.146 381.168L176.312 383.953C175.458 384.386 174.515 384.611 173.558 384.611C172.601 384.611 171.658 384.386 170.804 383.953L163.401 379.679C163.069 379.567 162.78 379.353 162.576 379.067C162.372 378.782 162.262 378.44 162.262 378.089C162.262 377.738 162.372 377.396 162.576 377.111C162.78 376.826 163.069 376.612 163.401 376.499L168.222 373.701C169.076 373.268 170.019 373.043 170.976 373.043C171.933 373.043 172.876 373.268 173.73 373.701Z" fill="#F5F5F5"/>
<path d="M162.905 370.61V368.346L160.285 368.155L154.357 364.733C153.504 364.301 152.56 364.075 151.603 364.075C150.646 364.075 149.703 364.301 148.849 364.733L144.881 367.023L142.884 366.87V369.071C142.905 369.42 143.022 369.756 143.222 370.044C143.421 370.331 143.696 370.557 144.016 370.699L151.432 374.973C152.285 375.405 153.229 375.631 154.186 375.631C155.142 375.631 156.086 375.405 156.939 374.973L161.76 372.187C162.07 372.047 162.338 371.83 162.538 371.555C162.739 371.281 162.865 370.96 162.905 370.623V370.61Z" fill="#E0E0E0"/>
<path d="M154.357 362.52L161.76 366.794C162.093 366.907 162.381 367.121 162.586 367.406C162.79 367.691 162.9 368.033 162.9 368.384C162.9 368.735 162.79 369.077 162.586 369.362C162.381 369.647 162.093 369.861 161.76 369.974L156.94 372.696C156.086 373.128 155.143 373.354 154.186 373.354C153.229 373.354 152.285 373.128 151.432 372.696L144.016 368.422C143.684 368.309 143.395 368.095 143.191 367.81C142.986 367.525 142.876 367.183 142.876 366.832C142.876 366.481 142.986 366.139 143.191 365.854C143.395 365.569 143.684 365.355 144.016 365.242L148.824 362.52C149.681 362.083 150.629 361.856 151.591 361.856C152.552 361.856 153.501 362.083 154.357 362.52Z" fill="#F5F5F5"/>
<path d="M201.65 393.048V390.784L199.043 390.593L193.102 387.159C192.249 386.726 191.305 386.501 190.348 386.501C189.392 386.501 188.448 386.726 187.595 387.159L183.626 389.448L181.629 389.308V391.509C181.651 391.856 181.769 392.191 181.968 392.476C182.168 392.761 182.442 392.985 182.761 393.124L190.164 397.411C191.018 397.844 191.961 398.069 192.918 398.069C193.875 398.069 194.818 397.844 195.672 397.411L200.505 394.625C200.817 394.487 201.086 394.267 201.285 393.99C201.484 393.713 201.606 393.388 201.637 393.048H201.65Z" fill="#E0E0E0"/>
<path d="M193.102 384.882L200.518 389.168C200.85 389.281 201.139 389.495 201.343 389.78C201.548 390.065 201.658 390.408 201.658 390.758C201.658 391.109 201.548 391.451 201.343 391.736C201.139 392.022 200.85 392.236 200.518 392.348L195.685 395.134C194.831 395.567 193.888 395.792 192.931 395.792C191.974 395.792 191.03 395.567 190.177 395.134L182.774 390.86C182.442 390.747 182.153 390.533 181.949 390.248C181.744 389.963 181.634 389.621 181.634 389.27C181.634 388.919 181.744 388.577 181.949 388.292C182.153 388.007 182.442 387.793 182.774 387.68L187.595 384.882C188.448 384.449 189.392 384.224 190.349 384.224C191.305 384.224 192.249 384.449 193.102 384.882Z" fill="#F5F5F5"/>
<path d="M222.116 328.329L221.646 326.382L219.687 326.217L213.327 322.516C210.287 320.76 206.255 321.129 204.296 323.292C203.88 323.746 203.575 324.29 203.405 324.882H202.846L203.342 326.942C203.562 327.673 203.926 328.353 204.414 328.94C204.901 329.528 205.501 330.012 206.178 330.364L213.988 334.867C214.623 335.206 215.349 335.333 216.06 335.23C216.772 335.127 217.432 334.799 217.944 334.294C219.174 332.98 220.408 331.623 221.646 330.224C221.877 329.973 222.041 329.668 222.123 329.336C222.206 329.005 222.203 328.659 222.116 328.329Z" fill="#E0E0E0"/>
<path d="M213.493 332.895L205.682 328.392C202.642 326.637 201.866 323.508 203.787 321.345C205.708 319.183 209.778 318.801 212.818 320.569L220.628 325.072C220.906 325.216 221.147 325.423 221.331 325.677C221.514 325.93 221.636 326.223 221.687 326.531C221.738 326.84 221.716 327.157 221.622 327.455C221.529 327.754 221.367 328.027 221.15 328.252C219.912 329.652 218.678 331.008 217.448 332.323C216.937 332.829 216.277 333.159 215.565 333.262C214.853 333.365 214.126 333.236 213.493 332.895Z" fill="#F5F5F5"/>
<path d="M262.032 352.624L261.562 350.652H261.002C260.47 350.017 259.828 349.483 259.107 349.075L251.309 344.572C250.681 344.236 249.959 344.116 249.255 344.231C248.552 344.346 247.906 344.689 247.417 345.208C246.145 346.569 244.987 347.917 243.779 349.215L242.672 349.126L243.168 351.174C243.235 351.442 243.356 351.694 243.525 351.913C243.693 352.131 243.906 352.313 244.148 352.446L251.945 356.949C254.985 358.704 259.107 358.424 261.078 356.262C261.538 355.789 261.867 355.206 262.035 354.568C262.202 353.931 262.201 353.261 262.032 352.624Z" fill="#E0E0E0"/>
<path d="M251.513 354.888L243.715 350.385C243.439 350.247 243.2 350.044 243.018 349.793C242.837 349.543 242.719 349.252 242.674 348.946C242.629 348.64 242.658 348.328 242.76 348.036C242.862 347.744 243.032 347.481 243.257 347.269C244.487 345.946 245.721 344.589 246.959 343.198C247.448 342.679 248.094 342.336 248.797 342.221C249.501 342.106 250.223 342.226 250.851 342.562L258.649 347.065C261.701 348.821 262.604 352.039 260.646 354.201C258.687 356.364 254.565 356.618 251.513 354.888Z" fill="#F5F5F5"/>
<path d="M242.494 340.285L242.024 338.365L240.535 338.263L231.186 332.87C230.402 332.45 229.501 332.301 228.623 332.443C227.746 332.586 226.939 333.013 226.327 333.658C225.373 334.727 224.432 335.77 223.478 336.8C223.39 336.905 223.31 337.016 223.236 337.131H222.295L222.778 339.141C222.863 339.483 223.021 339.804 223.24 340.08C223.46 340.357 223.736 340.583 224.05 340.743L234.061 346.518C234.852 346.943 235.758 347.103 236.646 346.974C237.534 346.846 238.358 346.437 238.996 345.806C239.95 344.788 240.904 343.733 241.846 342.677C242.149 342.367 242.367 341.984 242.481 341.565C242.594 341.147 242.599 340.706 242.494 340.285Z" fill="#E0E0E0"/>
<path d="M241.388 340.667C240.446 341.723 239.492 342.779 238.551 343.796C237.91 344.426 237.084 344.835 236.194 344.963C235.304 345.091 234.396 344.932 233.603 344.509L223.592 338.734C223.248 338.56 222.95 338.306 222.724 337.993C222.498 337.681 222.351 337.318 222.295 336.936C222.239 336.554 222.276 336.165 222.402 335.8C222.528 335.436 222.74 335.107 223.02 334.841C223.974 333.811 224.915 332.768 225.869 331.699C226.481 331.054 227.288 330.627 228.166 330.484C229.044 330.342 229.944 330.492 230.728 330.911L240.739 336.686C241.082 336.871 241.378 337.132 241.605 337.449C241.831 337.767 241.981 338.132 242.044 338.517C242.107 338.901 242.08 339.295 241.966 339.668C241.853 340.041 241.655 340.383 241.388 340.667Z" fill="#F5F5F5"/>
<path d="M530.361 287.358L500.609 270.173L498.446 320.379L530.361 338.886V287.358Z" fill="#FFC100"/>
<path d="M530.36 338.886L545.23 330.3L536.313 283.923L530.36 287.357V338.886Z" fill="#37474F"/>
<path d="M545.23 330.3L535.525 329.041L530.36 338.886L545.23 330.3Z" fill="#37474F"/>
<path d="M545.23 330.3L535.525 329.041L530.36 338.886L545.23 330.3Z" fill="#37474F"/>
<path d="M545.23 330.3L535.525 329.041L530.36 338.886L545.23 330.3Z" fill="#FFC100"/>
<path opacity="0.1" d="M545.23 330.3L535.525 329.041L530.36 338.886L545.23 330.3Z" fill="black"/>
<path d="M535.525 329.041L530.36 283.923V287.357V338.886L535.525 329.041Z" fill="#FFC100"/>
<path opacity="0.2" d="M535.525 329.041L530.36 283.923V287.357V338.886L535.525 329.041Z" fill="black"/>
<path d="M500.608 270.173L505.811 269.791L506.561 266.738L536.313 283.923H530.36V287.358L500.608 270.173Z" fill="#FFC100"/>
<path opacity="0.2" d="M500.608 270.173L505.811 269.791L506.561 266.738L536.313 283.923H530.36V287.358L500.608 270.173Z" fill="black"/>
<path d="M520.642 285.221C520.642 285.653 520.324 285.844 519.943 285.615C519.742 285.483 519.576 285.307 519.457 285.099C519.337 284.891 519.268 284.658 519.256 284.419C519.256 283.974 519.561 283.796 519.943 284.012C520.146 284.144 520.316 284.322 520.437 284.532C520.559 284.742 520.629 284.978 520.642 285.221Z" fill="#FFC100"/>
<path opacity="0.3" d="M520.642 285.221C520.642 285.653 520.324 285.844 519.943 285.615C519.742 285.483 519.576 285.307 519.457 285.099C519.337 284.891 519.268 284.658 519.256 284.419C519.256 283.974 519.561 283.796 519.943 284.012C520.146 284.144 520.316 284.322 520.437 284.532C520.559 284.742 520.629 284.978 520.642 285.221Z" fill="black"/>
<path d="M511.815 279.98C511.815 280.425 511.497 280.603 511.115 280.387C510.904 280.248 510.731 280.059 510.612 279.837C510.492 279.615 510.429 279.367 510.428 279.115C510.428 278.682 510.734 278.492 511.115 278.721C511.326 278.858 511.499 279.044 511.621 279.263C511.743 279.483 511.81 279.729 511.815 279.98Z" fill="#FFC100"/>
<path opacity="0.3" d="M511.815 279.98C511.815 280.425 511.497 280.603 511.115 280.387C510.904 280.248 510.731 280.059 510.612 279.837C510.492 279.615 510.429 279.367 510.428 279.115C510.428 278.682 510.734 278.492 511.115 278.721C511.326 278.858 511.499 279.044 511.621 279.263C511.743 279.483 511.81 279.729 511.815 279.98Z" fill="black"/>
<g style="mix-blend-mode:multiply">
<path d="M526.608 281.697C526.608 282.142 526.29 282.32 525.909 282.104C525.707 281.972 525.539 281.793 525.42 281.583C525.3 281.373 525.232 281.137 525.222 280.896C525.222 280.463 525.527 280.285 525.909 280.501C526.111 280.632 526.279 280.808 526.4 281.016C526.522 281.224 526.593 281.457 526.608 281.697Z" fill="#FFC100"/>
</g>
<g style="mix-blend-mode:multiply" opacity="0.2">
<path d="M526.608 281.697C526.608 282.142 526.29 282.32 525.909 282.104C525.707 281.972 525.539 281.793 525.42 281.583C525.3 281.373 525.232 281.137 525.222 280.896C525.222 280.463 525.527 280.285 525.909 280.501C526.111 280.632 526.279 280.808 526.4 281.016C526.522 281.224 526.593 281.457 526.608 281.697Z" fill="black"/>
</g>
<g style="mix-blend-mode:multiply">
<path d="M517.704 276.469C517.704 276.914 517.386 277.092 517.005 276.876C516.803 276.744 516.635 276.565 516.516 276.355C516.396 276.145 516.329 275.909 516.318 275.668C516.318 275.235 516.623 275.045 517.005 275.274C517.207 275.404 517.375 275.581 517.497 275.788C517.618 275.996 517.689 276.229 517.704 276.469Z" fill="#FFC100"/>
</g>
<g style="mix-blend-mode:multiply" opacity="0.2">
<path d="M517.704 276.469C517.704 276.914 517.386 277.092 517.005 276.876C516.803 276.744 516.635 276.565 516.516 276.355C516.396 276.145 516.329 275.909 516.318 275.668C516.318 275.235 516.623 275.045 517.005 275.274C517.207 275.404 517.375 275.581 517.497 275.788C517.618 275.996 517.689 276.229 517.704 276.469Z" fill="black"/>
</g>
<path d="M536.313 283.923H530.36L535.525 329.041L545.23 330.3L536.313 283.923Z" fill="#FFC100"/>
<path d="M506.562 266.738L505.811 269.791L506.562 273.607L508.062 274.485L506.562 266.738Z" fill="#FFC100"/>
<path d="M496.551 183.359C500.685 183.359 509.004 184.707 513.316 203.609C514.295 207.896 515.109 212.577 515.86 218.593C517.017 227.497 518.404 234.849 519.498 243.27C519.65 244.44 520.21 247.887 520.35 248.956C521.139 254.667 522.729 258.241 522.729 262.579C522.08 265.199 520.566 268.099 514.715 268.697C509.22 266.929 510.288 266.077 510.161 261.154C510.034 256.232 511.573 255.1 511.077 249.236C508.966 235.333 504.806 211.635 504.806 211.635L496.551 183.359Z" fill="#FFA8A7"/>
<path d="M525.845 281.697C525.751 281.696 525.661 281.662 525.589 281.602C525.517 281.542 525.468 281.458 525.45 281.366C525.45 281.366 524.42 275.248 523.148 270.643C522.13 266.993 519.536 266.039 517.246 265.199C516.737 265.021 516.254 264.843 515.834 264.652C515.786 264.632 515.743 264.602 515.707 264.564C515.671 264.527 515.643 264.482 515.624 264.434C515.605 264.385 515.596 264.334 515.597 264.282C515.598 264.23 515.609 264.178 515.631 264.131C515.651 264.083 515.681 264.04 515.719 264.004C515.756 263.968 515.8 263.939 515.849 263.92C515.897 263.901 515.949 263.892 516.001 263.894C516.053 263.895 516.104 263.906 516.152 263.927C516.572 264.118 517.03 264.283 517.513 264.462C519.866 265.314 522.779 266.382 523.873 270.427C525.145 275.083 526.201 281.176 526.214 281.239C526.228 281.343 526.202 281.449 526.141 281.535C526.079 281.62 525.987 281.678 525.883 281.697H525.845Z" fill="#455A64"/>
<path d="M519.943 257.389C518.937 259.05 518.158 260.838 517.628 262.706C517.424 263.711 515.809 262.821 515.504 261.434C515.349 259.317 515.349 257.191 515.504 255.074C514.985 257.032 514.754 259.054 514.817 261.078C515.148 263.037 515.669 263.469 517.017 263.953C518.366 264.436 518.289 263.202 518.671 261.587C519.053 259.971 519.943 257.389 519.943 257.389Z" fill="#F28F8F"/>
<path d="M519.599 284.394V272.488C519.599 269.842 519.599 266.853 515.313 264.334C513.786 263.444 512.629 263.164 512.057 263.533C511.484 263.902 511.56 264.894 511.56 264.907V279.509C511.56 279.614 511.519 279.714 511.445 279.788C511.371 279.862 511.271 279.904 511.166 279.904C511.062 279.904 510.961 279.862 510.887 279.788C510.813 279.714 510.772 279.614 510.772 279.509V264.945C510.734 264.553 510.793 264.158 510.944 263.794C511.095 263.43 511.333 263.109 511.637 262.859C512.502 262.312 513.863 262.579 515.707 263.647C520.414 266.408 520.401 269.778 520.388 272.488V284.394C520.388 284.498 520.347 284.599 520.273 284.673C520.199 284.747 520.098 284.788 519.994 284.788C519.889 284.788 519.789 284.747 519.715 284.673C519.641 284.599 519.599 284.498 519.599 284.394Z" fill="#455A64"/>
<path d="M517.017 276.469C516.923 276.47 516.831 276.438 516.759 276.377C516.686 276.316 516.638 276.232 516.623 276.138L515.16 267.12C515.142 267.017 515.165 266.911 515.224 266.825C515.284 266.739 515.375 266.681 515.478 266.662C515.582 266.647 515.688 266.673 515.774 266.735C515.859 266.797 515.917 266.889 515.936 266.993L517.411 275.973C517.43 276.076 517.407 276.182 517.347 276.268C517.288 276.354 517.196 276.412 517.093 276.431L517.017 276.469Z" fill="#455A64"/>
<path d="M514.333 263.775C512.171 262.897 509.894 261.231 509.093 262.134C508.702 262.61 508.433 263.174 508.308 263.777C508.183 264.381 508.206 265.005 508.374 265.598C508.543 266.19 508.853 266.733 509.277 267.18C509.701 267.626 510.227 267.964 510.81 268.163C513.275 268.997 515.959 268.911 518.366 267.921L514.333 263.775Z" fill="#FFA8A7"/>
<path d="M493.421 182.914C499.87 182.914 507.655 184.949 510.759 190.915C514.079 197.275 516.267 214.332 516.267 214.332C516.267 214.332 513.824 219.585 504.819 219L493.421 182.914Z" fill="#37474F"/>
<path d="M441.906 341.786C440.303 340.947 439.273 342.995 437.823 344.636C436.792 345.78 435.202 347.599 434.961 348.91C434.617 350.856 436.36 353.909 438.293 355.588C440.227 357.267 442.478 358.475 443.178 362.164C443.355 363.856 444.011 365.462 445.067 366.795C446.123 368.129 447.537 369.134 449.143 369.694C453.328 371.5 458.938 370.966 460.846 369.694C463.097 368.231 461.036 366.641 457.882 362.062C453.761 356.16 450.543 351.95 450.543 346.442L441.906 341.786Z" fill="#263238"/>
<path d="M445.2 336.953L441.816 341.914C441.1 342.946 440.819 344.218 441.033 345.455C441.248 346.693 441.94 347.797 442.961 348.528L443.063 348.592C444.089 349.217 445.303 349.459 446.49 349.275C447.678 349.091 448.762 348.493 449.55 347.587L454.829 341.825L445.2 336.953Z" fill="#FFA8A7"/>
<path d="M507.401 240.103C507.617 246.463 505.824 271.992 501.461 283.351C497.098 294.71 494.554 301.68 493.18 304.033C491.806 306.387 452.196 344.954 452.196 344.954C452.196 344.954 445.467 344.458 444.399 337.945C444.399 337.945 460.63 310.355 464.153 304.695C467.677 299.034 480.117 290.359 480.117 290.359L478.985 240.866L507.401 240.103Z" fill="#37474F"/>
<path d="M498.668 374.858L507.041 372.955L504.268 360.762L495.896 362.666L498.668 374.858Z" fill="#FFA8A7"/>
<path d="M507.401 240.103H467.231C466.875 244.555 465.959 247.048 465.718 257.809C465.412 275.223 481.605 306.857 481.605 306.857C481.401 309.223 480.397 319.145 482.648 327.934C486.21 341.812 495.889 365.28 495.889 365.28C495.889 365.28 501.944 366.145 504.959 362.647C504.959 362.647 499.604 314.973 498.154 302.761C496.589 289.545 492.582 265.416 492.582 265.416C495.233 262.768 497.639 259.886 499.769 256.804C503.484 251.851 506.088 246.154 507.401 240.103Z" fill="#37474F"/>
<path d="M452.387 230.232C454.193 211.61 459.828 198.521 460.655 193.84L466.124 216.889C464.402 223.072 463.039 229.349 462.041 235.689C461.812 237.279 459.217 251.118 459.624 257.02C459.693 258.062 460.146 259.041 460.896 259.768C462.906 261.739 463.504 263.444 464.852 265.657C465.908 267.4 467.002 268.01 466.722 268.43C466.347 268.876 465.819 269.164 465.241 269.237C464.664 269.31 464.08 269.163 463.606 268.824C462.537 268.096 461.559 267.242 460.693 266.28C461.037 268.563 461.745 270.774 462.792 272.831C465.17 277.55 464.776 280.031 458.174 278.644C454.04 277.767 451.306 274.498 450.212 264.716C450.012 261.19 450.033 257.656 450.275 254.133C450.593 245.928 451.84 235.816 452.387 230.232Z" fill="#FFA8A7"/>
<path d="M480.155 183.295C472.459 185.152 461.952 187.569 458.912 195.913C455.872 204.258 452.552 220.081 452.552 220.081C454.956 222.893 462.436 224.368 465.667 222.625L467.18 217.626V240.039C473.197 246.59 494.197 249.643 507.35 240.039V198.228C507.35 191.538 503.636 183.511 493.358 182.964L480.155 183.295Z" fill="#455A64"/>
<path d="M467.231 217.677L471.085 205.53L467.231 223.121V217.677Z" fill="#37474F"/>
<path d="M477.267 149.066C476.576 148.973 475.873 149.04 475.212 149.26C474.551 149.481 473.948 149.849 473.451 150.338C471.823 152.004 472.179 155.082 473.451 162.155L478.475 162.74L477.267 149.066Z" fill="#263238"/>
<path d="M506.574 147.018C507.654 147.023 508.723 146.807 509.716 146.382C511.255 145.491 511.662 147.247 510.823 148.76C510.26 149.85 509.428 150.778 508.407 151.457C507.385 152.136 506.207 152.543 504.984 152.64C504.984 152.424 503.547 148.71 503.547 148.71L506.574 147.018Z" fill="#263238"/>
<path d="M479.621 162.816C478.87 163.261 477.814 161.824 476.886 160.857C476.524 160.443 476.063 160.128 475.545 159.942C475.028 159.756 474.471 159.705 473.929 159.795C473.386 159.884 472.875 160.11 472.444 160.452C472.014 160.793 471.677 161.239 471.467 161.748C469.941 164.966 473.413 169.24 475.448 170.652C476.017 171.144 476.726 171.445 477.475 171.511C478.224 171.577 478.975 171.406 479.621 171.02L480.155 183.321C481.055 185.294 482.43 187.013 484.157 188.325C485.884 189.637 487.909 190.5 490.051 190.838C497.276 191.818 495.788 185.852 493.422 182.939V178.462C495.226 178.851 497.082 178.945 498.917 178.741C499.858 178.487 502.11 175.778 503.56 172.725C505.188 169.316 507.897 163.248 505.48 152.996C502.936 141.981 491.056 141.65 483.996 146.089C476.937 150.528 479.621 162.816 479.621 162.816Z" fill="#FFA8A7"/>
<path d="M479.621 164.088C479.252 164.088 477.814 161.722 476.886 160.87C475.614 159.7 477.267 149.104 477.267 149.104C477.267 149.104 475.995 145.072 478.539 142.413C481.083 139.755 486.019 140.187 489.618 140.06C494.042 140.101 498.427 139.235 502.504 137.516C507.592 135.29 508.012 134.972 508.648 137.274C509.284 139.577 509.525 144.677 506.472 148.124L504.806 150.834C504.806 150.834 503.254 152.106 498.446 152.729C493.638 153.352 485.535 150.745 484.454 150.605C483.08 150.414 482.775 151.762 482.037 155.426C481.427 158.568 480.88 164.088 479.621 164.088Z" fill="#263238"/>
<path d="M477.268 149.88L472.765 147.463C473.067 146.862 473.596 146.405 474.235 146.193C474.874 145.98 475.571 146.03 476.174 146.331C476.778 146.667 477.23 147.224 477.433 147.886C477.637 148.547 477.578 149.261 477.268 149.88Z" fill="#263238"/>
<path d="M493.409 178.436C493.409 178.436 486.718 177.088 484.377 175.892C483.002 175.175 481.872 174.064 481.134 172.699C481.484 174.083 482.112 175.381 482.978 176.515C484.683 178.703 493.409 180.331 493.409 180.331V178.436Z" fill="#F28F8F"/>
<path d="M493.625 162.549C493.615 162.813 493.528 163.069 493.374 163.284C493.22 163.499 493.006 163.663 492.759 163.758C492.512 163.852 492.242 163.872 491.984 163.814C491.726 163.756 491.491 163.624 491.307 163.434C491.124 163.243 491 163.003 490.952 162.743C490.904 162.483 490.934 162.214 491.037 161.971C491.14 161.728 491.313 161.52 491.534 161.374C491.754 161.228 492.013 161.15 492.277 161.15C492.457 161.153 492.635 161.192 492.801 161.264C492.966 161.336 493.116 161.44 493.241 161.57C493.366 161.7 493.465 161.853 493.531 162.021C493.597 162.189 493.629 162.368 493.625 162.549Z" fill="#263238"/>
<path d="M492.264 157.486L489.389 159.064C489.183 158.671 489.139 158.214 489.264 157.788C489.39 157.363 489.677 157.004 490.063 156.787C490.252 156.682 490.461 156.617 490.676 156.596C490.891 156.575 491.108 156.598 491.314 156.663C491.52 156.729 491.71 156.835 491.874 156.977C492.037 157.118 492.17 157.292 492.264 157.486Z" fill="#263238"/>
<path d="M492.798 171.516L495.864 172.661C495.797 172.867 495.689 173.057 495.547 173.221C495.404 173.384 495.231 173.517 495.036 173.612C494.842 173.707 494.63 173.762 494.414 173.773C494.198 173.785 493.981 173.753 493.778 173.679C493.367 173.514 493.037 173.197 492.854 172.794C492.672 172.391 492.652 171.934 492.798 171.516Z" fill="#F28F8F"/>
<path d="M505.582 158.593L502.961 156.583C503.084 156.405 503.241 156.255 503.424 156.14C503.607 156.026 503.812 155.95 504.025 155.918C504.239 155.886 504.457 155.898 504.665 155.953C504.874 156.008 505.069 156.106 505.238 156.24C505.588 156.512 505.819 156.909 505.883 157.347C505.947 157.786 505.839 158.232 505.582 158.593Z" fill="#263238"/>
<path d="M504.768 162.167C504.758 162.432 504.67 162.688 504.515 162.903C504.361 163.119 504.146 163.283 503.898 163.377C503.651 163.471 503.381 163.49 503.122 163.431C502.864 163.373 502.628 163.239 502.445 163.047C502.262 162.856 502.14 162.614 502.093 162.353C502.047 162.093 502.078 161.824 502.183 161.581C502.289 161.337 502.463 161.131 502.685 160.986C502.908 160.842 503.167 160.766 503.432 160.768C503.612 160.771 503.79 160.81 503.954 160.883C504.119 160.955 504.268 161.059 504.392 161.189C504.516 161.319 504.613 161.473 504.678 161.641C504.742 161.809 504.773 161.988 504.768 162.167Z" fill="#263238"/>
<path d="M498.459 162.002L497.187 169.977L501.613 169.456L498.459 162.002Z" fill="#F28F8F"/>
<path d="M506.091 368.88L505.824 367.684C506.701 367.85 510.454 374.044 514.193 376.805C518.277 379.781 521.825 381.536 523.644 382.872C526.087 384.666 522.551 388.329 516.547 388.66C513.557 388.825 508.126 387.909 506.46 386.332C504.793 384.755 503.572 382.109 502.249 380.964C500.927 379.819 498.23 378.827 497.327 377.364C496.827 375.919 496.649 374.382 496.805 372.861C496.805 371.284 496.907 369.567 497.441 369.592C497.441 369.77 497.657 370.508 497.657 370.508C499.231 371.307 500.982 371.692 502.745 371.628C504.157 371.5 506.79 371.17 506.091 368.88Z" fill="#263238"/>
<path d="M497.098 294.672C497.098 294.672 493.536 269.333 492.582 265.416C492.582 265.416 498.331 262.223 500.507 259.73C498.855 262.109 497.045 264.374 495.088 266.509L497.098 294.672Z" fill="#263238"/>
<path d="M475.588 293.832C475.588 293.832 479.875 304.504 481.605 306.857C481.605 306.857 481.172 314.985 481.236 316.626L478.985 318.598C478.918 314.917 479.255 311.24 479.989 307.633C478.022 303.208 476.547 298.579 475.588 293.832Z" fill="#263238"/>
<path d="M195.138 451.395L350.907 361.452C351.589 361.106 352.343 360.926 353.107 360.926C353.872 360.926 354.626 361.106 355.308 361.452L454.244 418.577C454.886 418.994 455.42 419.557 455.803 420.221C456.185 420.884 456.405 421.628 456.445 422.393V423.271C456.404 424.035 456.184 424.779 455.802 425.442C455.419 426.106 454.885 426.669 454.244 427.087L298.475 517.017C297.796 517.365 297.044 517.547 296.281 517.547C295.518 517.547 294.765 517.365 294.086 517.017L195.125 458.938C194.486 458.518 193.956 457.953 193.576 457.291C193.196 456.628 192.977 455.885 192.937 455.122C192.988 454.372 193.213 453.644 193.596 452.997C193.978 452.35 194.506 451.801 195.138 451.395Z" fill="#FFC100"/>
<g opacity="0.2">
<path opacity="0.2" d="M195.138 451.395L350.907 361.452C351.589 361.106 352.343 360.926 353.107 360.926C353.872 360.926 354.626 361.106 355.308 361.452L454.244 418.577C454.886 418.994 455.42 419.557 455.803 420.221C456.185 420.884 456.405 421.628 456.445 422.393V423.271C456.404 424.035 456.184 424.779 455.802 425.442C455.419 426.106 454.885 426.669 454.244 427.087L298.475 517.017C297.796 517.365 297.044 517.547 296.281 517.547C295.518 517.547 294.765 517.365 294.086 517.017L195.125 458.938C194.486 458.518 193.956 457.953 193.576 457.291C193.196 456.628 192.977 455.885 192.937 455.122C192.988 454.372 193.213 453.644 193.596 452.997C193.978 452.35 194.506 451.801 195.138 451.395Z" fill="white"/>
</g>
<path d="M192.937 455.16C192.977 455.923 193.196 456.666 193.576 457.329C193.956 457.992 194.486 458.556 195.125 458.976L294.086 517.043C294.787 517.324 295.523 517.504 296.274 517.577V500.392L291.11 431.78L234.277 428.791L195.138 451.395C194.501 451.805 193.97 452.36 193.587 453.014C193.205 453.668 192.982 454.403 192.937 455.16Z" fill="#FFC100"/>
<path d="M192.937 455.16C192.977 455.923 193.196 456.666 193.576 457.329C193.956 457.992 194.486 458.556 195.125 458.976L294.086 517.043C294.787 517.324 295.523 517.504 296.274 517.577V500.392L291.11 431.78L234.277 428.791L195.138 451.395C194.501 451.805 193.97 452.36 193.587 453.014C193.205 453.668 192.982 454.403 192.937 455.16Z" fill="#FFC100"/>
<g opacity="0.2">
<path opacity="0.2" d="M192.937 455.16C192.977 455.923 193.196 456.666 193.576 457.329C193.956 457.992 194.486 458.556 195.125 458.976L294.086 517.043C294.787 517.324 295.523 517.504 296.274 517.577V500.392L291.11 431.78L234.277 428.791L195.138 451.395C194.501 451.805 193.97 452.36 193.587 453.014C193.205 453.668 192.982 454.403 192.937 455.16Z" fill="black"/>
</g>
<path d="M355.308 361.452L454.244 418.577C454.513 418.663 454.749 418.833 454.915 419.062C455.082 419.29 455.172 419.566 455.172 419.849C455.172 420.132 455.082 420.408 454.915 420.636C454.749 420.865 454.513 421.035 454.244 421.121L298.475 511.051C297.793 511.397 297.039 511.577 296.274 511.577C295.51 511.577 294.756 511.397 294.074 511.051L195.137 453.939C194.874 453.846 194.646 453.674 194.484 453.446C194.323 453.218 194.236 452.946 194.236 452.667C194.236 452.387 194.323 452.115 194.484 451.887C194.646 451.659 194.874 451.487 195.137 451.395L350.907 361.452C351.589 361.106 352.343 360.926 353.107 360.926C353.872 360.926 354.626 361.106 355.308 361.452Z" fill="#FFC100"/>
<path d="M281.583 426.12C281.298 426.094 281.024 426.002 280.781 425.853L271.114 420.269C270.821 420.103 270.669 419.938 270.643 419.798C270.618 419.658 270.745 419.493 271.012 419.34L275.324 416.86C276.31 416.249 277.447 415.926 278.606 415.926C279.766 415.926 280.902 416.249 281.888 416.86C282.32 417.076 282.682 417.412 282.931 417.827C283.022 417.976 283.07 418.148 283.07 418.323C283.07 418.498 283.022 418.669 282.931 418.819C283.573 418.654 284.241 418.619 284.897 418.718C285.553 418.816 286.182 419.045 286.747 419.391C287.752 419.976 288.273 420.663 288.311 421.35C288.35 422.037 287.764 422.787 286.582 423.474L282.384 425.827C282.153 426.005 281.873 426.107 281.583 426.12ZM279.217 419.76C279.509 419.582 279.662 419.404 279.649 419.213C279.636 419.022 279.471 418.819 279.14 418.628C278.838 418.439 278.491 418.334 278.135 418.323C277.804 418.329 277.48 418.421 277.194 418.59L275.604 419.518L277.627 420.676L279.217 419.76ZM283.948 422.215C284.266 422.037 284.394 421.833 284.356 421.617C284.314 421.482 284.243 421.357 284.149 421.252C284.055 421.146 283.938 421.063 283.809 421.007C283.466 420.8 283.076 420.686 282.676 420.676C282.315 420.667 281.958 420.76 281.646 420.943L279.865 421.973L282.117 423.245L283.948 422.215Z" fill="white"/>
<path d="M289.673 421.274C289.576 421.207 289.49 421.125 289.418 421.032L282.931 413.057C282.83 412.942 282.764 412.801 282.74 412.65C282.74 412.548 282.842 412.446 283.033 412.344L284.305 411.581C284.471 411.482 284.659 411.425 284.852 411.416C285.085 411.419 285.317 411.458 285.539 411.53L299.365 415.27C299.504 415.294 299.637 415.342 299.76 415.41C299.861 415.41 299.912 415.524 299.912 415.588C299.912 415.652 299.912 415.715 299.772 415.766L297.534 417.038C297.404 417.109 297.261 417.152 297.114 417.165C296.945 417.173 296.776 417.147 296.618 417.089L294.506 416.466L291.479 418.208L292.586 419.417C292.627 419.453 292.659 419.498 292.681 419.549C292.703 419.599 292.714 419.654 292.713 419.709C292.664 419.817 292.578 419.902 292.471 419.951L290.245 421.223C290.163 421.282 290.067 421.318 289.966 421.327C289.865 421.336 289.764 421.318 289.673 421.274ZM291.644 415.537L287.917 414.418L289.876 416.567L291.644 415.537Z" fill="white"/>
<path d="M301.032 414.825C300.747 414.798 300.473 414.707 300.23 414.558L290.55 408.961C290.262 408.8 290.109 408.647 290.092 408.503C290.075 408.359 290.203 408.206 290.474 408.045L291.619 407.383C291.772 407.291 291.94 407.227 292.115 407.193C292.325 407.156 292.54 407.156 292.751 407.193L301.655 408.465L296.567 405.514C296.287 405.348 296.122 405.183 296.096 405.043C296.071 404.903 296.198 404.738 296.465 404.585L297.877 403.771C298.119 403.626 298.396 403.551 298.678 403.555C298.967 403.579 299.246 403.671 299.492 403.822L309.172 409.419C309.461 409.58 309.613 409.732 309.63 409.877C309.63 410.017 309.503 410.169 309.223 410.335L308.091 410.983C307.939 411.08 307.771 411.149 307.595 411.187C307.389 411.223 307.178 411.223 306.972 411.187L298.068 409.915L303.156 412.879C303.444 413.048 303.597 413.201 303.614 413.336C303.614 413.476 303.486 413.629 303.207 413.794L301.807 414.608C301.573 414.749 301.305 414.824 301.032 414.825Z" fill="white"/>
<path d="M319.666 403.936C319.755 403.936 319.819 404.051 319.819 404.114C319.819 404.178 319.819 404.242 319.679 404.293L317.44 405.565C317.328 405.63 317.209 405.681 317.084 405.717C316.967 405.743 316.845 405.743 316.728 405.717L309.185 404.636L313.268 407.002C313.561 407.167 313.713 407.32 313.739 407.473C313.764 407.625 313.624 407.765 313.345 407.93L311.933 408.732C311.703 408.885 311.433 408.965 311.157 408.961C310.87 408.937 310.594 408.841 310.355 408.681L300.688 403.11C300.396 402.944 300.243 402.779 300.218 402.639C300.192 402.499 300.319 402.334 300.586 402.181L301.986 401.367C302.228 401.222 302.505 401.147 302.787 401.151C303.076 401.173 303.355 401.265 303.601 401.418L307.608 403.733L305.7 399.497C305.681 399.464 305.671 399.427 305.671 399.389C305.671 399.351 305.681 399.314 305.7 399.281C305.779 399.192 305.874 399.119 305.98 399.065L308.206 397.793C308.299 397.742 308.404 397.716 308.511 397.716C308.623 397.714 308.734 397.745 308.829 397.805C308.93 397.855 309.007 397.941 309.045 398.047L310.94 402.715L319.247 403.796C319.396 403.81 319.539 403.857 319.666 403.936Z" fill="white"/>
<path d="M325.352 399.561C323.29 399.491 321.281 398.896 319.514 397.831C317.568 396.699 316.563 395.592 316.474 394.473C316.385 393.353 317.212 392.323 318.916 391.331C319.634 390.918 320.392 390.581 321.18 390.326C321.906 390.087 322.657 389.933 323.419 389.868C323.577 389.849 323.737 389.88 323.877 389.957C323.976 390.022 324.058 390.109 324.118 390.211L324.716 391.28C324.805 391.394 324.805 391.483 324.716 391.534C324.589 391.595 324.45 391.63 324.309 391.636C323.412 391.753 322.548 392.047 321.765 392.501C320.862 393.01 320.493 393.582 320.582 394.206C320.671 394.829 321.32 395.478 322.478 396.152C323.514 396.782 324.689 397.149 325.899 397.22C326.954 397.281 328.005 397.038 328.927 396.521C329.593 396.188 330.133 395.648 330.466 394.981C330.505 394.892 330.567 394.813 330.644 394.753C330.784 394.705 330.936 394.705 331.076 394.753L333.01 395.109C333.143 395.131 333.272 395.174 333.391 395.236C333.44 395.263 333.479 395.305 333.504 395.354C333.529 395.404 333.538 395.46 333.531 395.516C333.366 396.355 332.488 397.233 330.911 398.136C329.228 399.123 327.302 399.616 325.352 399.561Z" fill="white"/>
<path d="M334.358 395.478C334.257 395.412 334.167 395.33 334.091 395.236L327.617 387.26C327.502 387.155 327.434 387.009 327.426 386.853C327.426 386.752 327.528 386.65 327.706 386.548L328.978 385.785C329.138 385.684 329.322 385.627 329.512 385.62C329.749 385.623 329.985 385.661 330.211 385.734L344.038 389.474C344.173 389.497 344.302 389.545 344.42 389.614C344.521 389.614 344.572 389.728 344.572 389.792C344.572 389.855 344.572 389.919 344.432 389.97L342.194 391.242C342.069 391.314 341.93 391.358 341.787 391.369C341.618 391.377 341.449 391.351 341.291 391.293L339.179 390.669L336.139 392.425L337.258 393.697C337.347 393.798 337.398 393.9 337.373 393.977C337.347 394.053 337.284 394.142 337.131 394.218L334.905 395.49C334.821 395.538 334.726 395.561 334.63 395.559C334.534 395.557 334.44 395.529 334.358 395.478ZM336.317 389.741L332.603 388.621L334.562 390.771L336.317 389.741Z" fill="white"/>
<path d="M345.717 389.028C345.429 389.004 345.15 388.913 344.903 388.761L335.236 383.177C334.956 383.012 334.803 382.859 334.778 382.707C334.752 382.554 334.867 382.414 335.147 382.249L338.696 380.201C339.858 379.458 341.208 379.063 342.588 379.063C343.967 379.063 345.318 379.458 346.48 380.201C348.07 381.117 348.63 382.058 348.172 383.025L353.196 384.297C353.308 384.317 353.415 384.356 353.514 384.411C353.555 384.431 353.591 384.459 353.62 384.494C353.649 384.529 353.669 384.571 353.68 384.615C353.68 384.691 353.68 384.755 353.527 384.818L351.505 385.988C351.376 386.057 351.24 386.109 351.098 386.141C350.956 386.178 350.807 386.178 350.665 386.141L346.073 384.869L344.954 385.518L347.829 387.171C348.121 387.337 348.274 387.502 348.287 387.642C348.299 387.782 348.185 387.935 347.905 388.1L346.493 388.914C346.249 389.021 345.981 389.061 345.717 389.028ZM343.644 383.419C344.521 382.91 344.483 382.389 343.555 381.854C343.164 381.594 342.709 381.446 342.24 381.428C341.771 381.41 341.306 381.523 340.896 381.753L339.751 382.414L342.575 384.042L343.644 383.419Z" fill="white"/>
<path d="M354.888 383.724C354.604 383.698 354.33 383.606 354.087 383.457L344.42 377.873C344.14 377.708 343.974 377.555 343.949 377.402C343.924 377.25 344.051 377.11 344.318 376.957L347.511 375.113C349.068 374.187 350.85 373.707 352.662 373.726C354.644 373.822 356.569 374.417 358.259 375.456C360.154 376.563 361.146 377.631 361.223 378.674C361.299 379.717 360.51 380.722 358.857 381.676L355.677 383.508C355.442 383.658 355.167 383.734 354.888 383.724ZM356.567 380.201C357.267 379.794 357.534 379.361 357.381 378.929C357.229 378.496 356.554 377.873 355.346 377.173C354.431 376.586 353.405 376.192 352.331 376.016C351.55 375.918 350.757 376.084 350.08 376.487L348.935 377.148L355.422 380.9L356.567 380.201Z" fill="white"/>
<path d="M226.136 457.36L252.734 441.995C253.419 441.65 254.174 441.471 254.941 441.471C255.707 441.471 256.463 441.65 257.148 441.995L278.568 454.371C278.838 454.457 279.073 454.627 279.24 454.856C279.407 455.084 279.497 455.36 279.497 455.643C279.497 455.926 279.407 456.202 279.24 456.43C279.073 456.659 278.838 456.829 278.568 456.915L251.971 472.268C251.289 472.614 250.535 472.793 249.77 472.793C249.006 472.793 248.252 472.614 247.57 472.268L226.136 459.904C225.873 459.812 225.645 459.64 225.483 459.412C225.322 459.184 225.235 458.912 225.235 458.632C225.235 458.353 225.322 458.081 225.483 457.853C225.645 457.625 225.873 457.453 226.136 457.36Z" fill="#E0E0E0"/>
<path d="M265.39 471.111L246.845 460.617C246.166 460.232 245.399 460.03 244.619 460.03C243.838 460.03 243.071 460.232 242.393 460.617L229.418 468.096L228.782 467.002L241.757 459.51C242.627 459.016 243.611 458.756 244.612 458.756C245.613 458.756 246.597 459.016 247.468 459.51L266.014 470.004L265.39 471.111Z" fill="white"/>
<path d="M260.112 455.478C259.089 455.48 258.084 455.212 257.199 454.702L239.136 444.259L239.772 443.165L257.847 453.595C258.537 453.995 259.32 454.206 260.118 454.206C260.915 454.206 261.698 453.995 262.388 453.595L275.299 446.141L275.935 447.248L263.024 454.702C262.139 455.214 261.134 455.482 260.112 455.478Z" fill="white"/>
<path d="M255.252 453.214L254.616 452.107L269.168 443.712L265.276 441.46L250.088 450.224L249.452 449.13L265.276 439.998L271.712 443.712L255.252 453.214Z" fill="white"/>
<path d="M239.442 474.278L232.993 470.564L249.567 461.062L250.203 462.156L235.549 470.564L239.442 472.802L254.731 463.987L255.367 465.081L239.442 474.278Z" fill="white"/>
<path d="M263.393 477.611L287.79 463.53C288.815 463.009 289.948 462.738 291.097 462.738C292.247 462.738 293.38 463.009 294.404 463.53L298.119 465.679C299.95 466.722 299.95 468.439 298.119 469.495L273.734 483.576C272.71 484.097 271.577 484.368 270.427 484.368C269.278 484.368 268.145 484.097 267.12 483.576L263.393 481.427C261.574 480.371 261.574 478.654 263.393 477.611Z" fill="#FFC100"/>
<g opacity="0.7">
<path opacity="0.7" d="M264.665 477.611L289.062 463.53C290.087 463.009 291.22 462.738 292.369 462.738C293.519 462.738 294.652 463.009 295.676 463.53L299.391 465.679C301.222 466.722 301.222 468.439 299.391 469.495L275.006 483.576C273.982 484.097 272.849 484.368 271.699 484.368C270.55 484.368 269.417 484.097 268.392 483.576L264.665 481.427C262.846 480.371 262.846 478.654 264.665 477.611Z" fill="white"/>
</g>
<path d="M299.569 456.724L323.953 442.656C324.978 442.135 326.111 441.864 327.26 441.864C328.409 441.864 329.543 442.135 330.567 442.656L334.294 444.806C336.113 445.861 336.113 447.566 334.294 448.622L309.897 462.703C308.875 463.223 307.744 463.495 306.596 463.495C305.449 463.495 304.318 463.223 303.296 462.703L299.569 460.553C297.737 459.485 297.737 457.78 299.569 456.724Z" fill="#FFC100"/>
<path d="M299.569 456.724L323.953 442.656C324.978 442.135 326.111 441.864 327.26 441.864C328.409 441.864 329.543 442.135 330.567 442.656L334.294 444.806C336.113 445.861 336.113 447.566 334.294 448.622L309.897 462.703C308.875 463.223 307.744 463.495 306.596 463.495C305.449 463.495 304.318 463.223 303.296 462.703L299.569 460.553C297.737 459.485 297.737 457.78 299.569 456.724Z" fill="#FFC100"/>
<path opacity="0.7" d="M299.569 456.724L323.953 442.656C324.978 442.135 326.111 441.864 327.26 441.864C328.409 441.864 329.543 442.135 330.567 442.656L334.294 444.806C336.113 445.861 336.113 447.566 334.294 448.622L309.897 462.703C308.875 463.223 307.744 463.495 306.596 463.495C305.449 463.495 304.318 463.223 303.296 462.703L299.569 460.553C297.737 459.485 297.737 457.78 299.569 456.724Z" fill="white"/>
<path d="M335.732 435.838L360.129 421.757C361.151 421.237 362.282 420.965 363.43 420.965C364.577 420.965 365.708 421.237 366.731 421.757L370.457 423.907C372.289 424.963 372.289 426.667 370.457 427.723L346.073 441.804C345.049 442.324 343.915 442.596 342.766 442.596C341.617 442.596 340.484 442.324 339.459 441.804L335.732 439.654C333.913 438.598 333.913 436.894 335.732 435.838Z" fill="#FFC100"/>
<path opacity="0.7" d="M335.732 435.838L360.129 421.757C361.151 421.237 362.282 420.965 363.43 420.965C364.577 420.965 365.708 421.237 366.731 421.757L370.457 423.907C372.289 424.963 372.289 426.667 370.457 427.723L346.073 441.804C345.049 442.324 343.915 442.596 342.766 442.596C341.617 442.596 340.484 442.324 339.459 441.804L335.732 439.654C333.913 438.598 333.913 436.894 335.732 435.838Z" fill="white"/>
<path d="M371.907 414.965L396.292 400.884C397.316 400.363 398.45 400.092 399.599 400.092C400.748 400.092 401.881 400.363 402.906 400.884L406.633 403.033C408.452 404.076 408.452 405.793 406.633 406.849L382.236 420.93C381.211 421.451 380.078 421.722 378.929 421.722C377.78 421.722 376.646 421.451 375.622 420.93L371.907 418.781C370.076 417.725 370.076 416.008 371.907 414.965Z" fill="#FFC100"/>
<path opacity="0.7" d="M371.907 414.965L396.292 400.884C397.316 400.363 398.45 400.092 399.599 400.092C400.748 400.092 401.881 400.363 402.906 400.884L406.633 403.033C408.452 404.076 408.452 405.793 406.633 406.849L382.236 420.93C381.211 421.451 380.078 421.722 378.929 421.722C377.78 421.722 376.646 421.451 375.622 420.93L371.907 418.781C370.076 417.725 370.076 416.008 371.907 414.965Z" fill="white"/>
<path d="M423.461 412.751C424.53 413.375 424.415 414.443 423.194 415.155L360.434 451.382C359.804 451.733 359.1 451.93 358.379 451.957C357.658 451.983 356.941 451.838 356.287 451.535C355.219 450.911 355.333 449.843 356.554 449.143L419.315 412.904C419.947 412.559 420.65 412.365 421.37 412.339C422.09 412.312 422.806 412.453 423.461 412.751Z" fill="#FFC100"/>
<g opacity="0.1">
<path opacity="0.1" d="M423.461 412.751C424.53 413.375 424.415 414.443 423.194 415.155L360.434 451.382C359.804 451.733 359.1 451.93 358.379 451.957C357.658 451.983 356.941 451.838 356.287 451.535C355.219 450.911 355.333 449.843 356.554 449.143L419.315 412.904C419.947 412.559 420.65 412.365 421.37 412.339C422.09 412.312 422.806 412.453 423.461 412.751Z" fill="black"/>
</g>
<path d="M433.841 418.73C434.922 419.353 434.808 420.421 433.587 421.121L393.391 444.31C392.761 444.661 392.057 444.858 391.336 444.884C390.616 444.911 389.899 444.766 389.245 444.462C388.176 443.852 388.291 442.77 389.512 442.071L429.694 418.882C430.324 418.531 431.028 418.334 431.749 418.308C432.47 418.281 433.187 418.426 433.841 418.73Z" fill="#FFC100"/>
<g opacity="0.1">
<path opacity="0.1" d="M433.841 418.73C434.922 419.353 434.808 420.421 433.587 421.121L393.391 444.31C392.761 444.661 392.057 444.858 391.336 444.884C390.616 444.911 389.899 444.766 389.245 444.462C388.176 443.852 388.291 442.77 389.512 442.071L429.694 418.882C430.324 418.531 431.028 418.334 431.749 418.308C432.47 418.281 433.187 418.426 433.841 418.73Z" fill="black"/>
</g>
</svg>
